<?xml version="1.0"?>
<svg xmlns="http://www.w3.org/2000/svg" id="Layer_1" data-name="Layer 1" viewBox="0 0 512 512" width="512" height="512"><title>travel map location pin</title><path d="M319.33,269.41V241.17l61.15-65.13a92.037,92.037,0,0,0,19.69-31.23,87.479,87.479,0,0,0,4.65-19.05,1.1,1.1,0,0,0,.02-.18l.05.01L446,142.72v342L319.33,431.94Zm106.16,64.96a20,20,0,1,0-20,20A20,20,0,0,0,425.49,334.37Z" style="fill:#e48e66"/><circle cx="405.49" cy="334.37" r="20" style="fill:#6fe3ff"/><path d="M319.33,241.17l-61.14-65.13a92.217,92.217,0,0,1-19.7-31.23,87.876,87.876,0,0,1-4.67-19.24,82.24,82.24,0,0,1-.46-15.7c2.93-43.8,37.9-82.59,85.97-82.59s83.05,38.79,85.98,82.59a82.345,82.345,0,0,1-.47,15.71,1.1,1.1,0,0,1-.02.18,87.479,87.479,0,0,1-4.65,19.05,92.037,92.037,0,0,1-19.69,31.23Zm36.93-132.34c0-20.94-16.53-37.91-36.93-37.91s-36.92,16.97-36.92,37.91,16.53,37.92,36.92,37.92S356.26,129.77,356.26,108.83Z" style="fill:#6fe3ff"/><path d="M319.33,70.92c20.4,0,36.93,16.97,36.93,37.91s-16.53,37.92-36.93,37.92-36.92-16.98-36.92-37.92S298.94,70.92,319.33,70.92Z" style="fill:#f8ec7d"/><path d="M192.67,369.15V142.72l41.15-17.15a87.876,87.876,0,0,0,4.67,19.24,92.217,92.217,0,0,0,19.7,31.23l61.14,65.13V431.94L192.67,484.72Z" style="fill:#f8ec7d"/><path d="M192.67,369.15V484.72L66,431.94v-342l126.67,52.78Zm-44.46,28.1a20,20,0,1,0-20,20A20.007,20.007,0,0,0,148.21,397.25Z" style="fill:#e48e66"/><circle cx="128.21" cy="397.25" r="20" style="fill:#6fe3ff"/><path d="M63.692,437.479l126.67,52.78a6.121,6.121,0,0,0,.578.206c.018.005.038.008.056.014a6.041,6.041,0,0,0,.695.154c.072.012.143.023.216.032a5.866,5.866,0,0,0,.712.053c.018,0,.035,0,.053,0a5.848,5.848,0,0,0,.79-.06l.159-.023a6.019,6.019,0,0,0,.771-.172h.006a6.085,6.085,0,0,0,.58-.207L319.331,438.44l124.361,51.819A6,6,0,0,0,452,484.72v-342a6,6,0,0,0-3.692-5.538l-37.064-15.445a88.29,88.29,0,0,0,.053-12.267,96.255,96.255,0,0,0-27.8-61.555,90.607,90.607,0,0,0-128.331,0,96.27,96.27,0,0,0-27.794,61.557,88.69,88.69,0,0,0,.048,12.264L192.67,136.22,68.308,84.4A6,6,0,0,0,60,89.94v342A6,6,0,0,0,63.692,437.479ZM232.854,146.867a97.782,97.782,0,0,0,20.961,33.279l59.515,63.4v19.471c-.507-.1-1.01-.207-1.508-.338a6,6,0,1,0-3.057,11.605,34.214,34.214,0,0,0,4.565.867V427.94L198.67,475.72V376.352a5.9,5.9,0,0,0,.905.073,6,6,0,0,0,1.718-11.75c-.865-.258-1.742-.475-2.623-.673V146.72l30.493-12.709A94.875,94.875,0,0,0,232.854,146.867ZM440,475.72,325.33,427.94V275.41h14.882a6,6,0,0,0,0-12H325.33V243.545l59.525-63.4a97.586,97.586,0,0,0,20.951-33.277,94.821,94.821,0,0,0,3.695-12.858L440,146.72ZM239.347,110.271a84.258,84.258,0,0,1,24.321-53.886,78.607,78.607,0,0,1,111.33,0,84.262,84.262,0,0,1,24.325,53.883,76.5,76.5,0,0,1-.436,14.565c-.008.057-.014.115-.02.173v0a81.584,81.584,0,0,1-4.335,17.748,85.7,85.7,0,0,1-18.426,29.176l-56.664,60.352c-.038,0-.074,0-.112,0s-.073,0-.111,0l-56.654-60.35a85.9,85.9,0,0,1-18.439-29.182,82.1,82.1,0,0,1-4.353-17.93A76.372,76.372,0,0,1,239.347,110.271ZM72,98.94l114.67,47.78V362.806A26.415,26.415,0,0,1,174.541,358a6,6,0,0,0-7.037,9.721,38.34,38.34,0,0,0,19.166,7.17V475.72L72,427.94Z" style="fill:#63316d"/><path d="M319.33,152.75c23.671,0,42.93-19.7,42.93-43.92S343,64.92,319.33,64.92s-42.92,19.7-42.92,43.91S295.664,152.75,319.33,152.75Zm0-75.83c17.055,0,30.93,14.315,30.93,31.91s-13.875,31.92-30.93,31.92-30.92-14.319-30.92-31.92S302.281,76.92,319.33,76.92Z" style="fill:#63316d"/><path d="M128.21,371.25a26,26,0,1,0,26,26A26.03,26.03,0,0,0,128.21,371.25Zm0,40a14,14,0,1,1,14-14A14.015,14.015,0,0,1,128.21,411.25Z" style="fill:#63316d"/><path d="M379.49,334.37a26,26,0,1,0,26-26A26.029,26.029,0,0,0,379.49,334.37Zm40,0a14,14,0,1,1-14-14A14.015,14.015,0,0,1,419.49,334.37Z" style="fill:#63316d"/><path d="M237.2,375.353a6,6,0,0,0,8.486,0L256.44,364.6,267.2,375.353a6,6,0,0,0,8.486-8.486L264.925,356.11l10.758-10.757a6,6,0,0,0-8.486-8.486L256.44,347.625l-10.757-10.758a6,6,0,0,0-8.486,8.486l10.758,10.757L237.2,366.867A6,6,0,0,0,237.2,375.353Z" style="fill:#63316d"/><path d="M255.29,382.25a6,6,0,0,0-6,6v13.126a6,6,0,0,0,12,0V388.25A6,6,0,0,0,255.29,382.25Z" style="fill:#63316d"/><path d="M216.87,401.75v11.593a6,6,0,0,0,12,0V401.75a38.583,38.583,0,0,0-5.969-20.656,6,6,0,1,0-10.141,6.414A26.6,26.6,0,0,1,216.87,401.75Z" style="fill:#63316d"/><path d="M225.43,430.916a6,6,0,0,0,1.92,8.265,22.229,22.229,0,0,0,33.1-12.8,6,6,0,0,0-11.546-3.269A10.218,10.218,0,0,1,233.7,429,6,6,0,0,0,225.43,430.916Z" style="fill:#63316d"/><path d="M127.373,307a5.993,5.993,0,0,0,6.977-4.829,8.633,8.633,0,0,1,13.781-5.257,6,6,0,0,0,7.365-9.474,20.634,20.634,0,0,0-32.953,12.583A6,6,0,0,0,127.373,307Z" style="fill:#63316d"/><path d="M128.21,360.51a6,6,0,0,0,6-6v-30a6,6,0,1,0-12,0v30A6,6,0,0,0,128.21,360.51Z" style="fill:#63316d"/><path d="M163.47,336.34v-22.5a6,6,0,0,0-12,0v22.5a38.867,38.867,0,0,0,1,8.788,6,6,0,1,0,11.688-2.716A26.873,26.873,0,0,1,163.47,336.34Z" style="fill:#63316d"/><path d="M409.6,280.057a10.358,10.358,0,0,1,1.74,5.763v9.46a6,6,0,0,0,12,0v-9.461a22.32,22.32,0,0,0-3.758-12.422,6,6,0,1,0-9.982,6.66Z" style="fill:#63316d"/><path d="M399.644,269.41a6,6,0,0,0-6-6h-30a6,6,0,0,0,0,12h30A6,6,0,0,0,399.644,269.41Z" style="fill:#63316d"/><path d="M278.508,232.419a10.5,10.5,0,0,1,1.7,1.377,10.366,10.366,0,0,1,3.05,7.364,34.322,34.322,0,0,0,3.921,15.923A6,6,0,1,0,297.8,251.5a21.972,21.972,0,0,1-2.541-10.336,22.3,22.3,0,0,0-6.559-15.844,22.643,22.643,0,0,0-3.66-2.963,6,6,0,1,0-6.533,10.066Z" style="fill:#63316d"/><path d="M256.44,318.8a6,6,0,0,0,6-6v-30a6,6,0,0,0-12,0v30A6,6,0,0,0,256.44,318.8Z" style="fill:#63316d"/><path d="M256.44,265.369a6,6,0,0,0,6-6V241.16a10.4,10.4,0,0,1,2.571-6.848,6,6,0,0,0-9.031-7.9,22.393,22.393,0,0,0-5.54,14.75v18.209A6,6,0,0,0,256.44,265.369Z" style="fill:#63316d"/></svg>
